<svg width="12" height="8" viewBox="0 0 12 8" fill="none" xmlns="http://www.w3.org/2000/svg">
<path d="M6.00005 3.27502L2.10005 7.17502C1.91672 7.35836 1.68338 7.45002 1.40005 7.45002C1.11672 7.45002 0.883382 7.35836 0.700049 7.17502C0.516715 6.99169 0.425049 6.75836 0.425049 6.47502C0.425049 6.19169 0.516715 5.95836 0.700049 5.77502L5.30005 1.17502C5.40005 1.07502 5.50838 1.00419 5.62505 0.962524C5.74172 0.920858 5.86672 0.900024 6.00005 0.900024C6.13338 0.900024 6.25838 0.920858 6.37505 0.962524C6.49172 1.00419 6.60005 1.07502 6.70005 1.17502L11.3 5.77502C11.4834 5.95836 11.575 6.19169 11.575 6.47502C11.575 6.75836 11.4834 6.99169 11.3 7.17502C11.1167 7.35836 10.8834 7.45002 10.6 7.45002C10.3167 7.45002 10.0834 7.35836 9.90005 7.17502L6.00005 3.27502Z" fill="#5773FF"/>
</svg>
